<?xml version="1.0" encoding="utf-8"?>
<!-- Generator: Adobe Illustrator 20.0.0, SVG Export Plug-In . SVG Version: 6.00 Build 0)  -->
<svg version="1.1" id="_x39_925ed2a-2fbb-4e76-803a-e88dd6dae477"
	 xmlns="http://www.w3.org/2000/svg" xmlns:xlink="http://www.w3.org/1999/xlink" x="0px" y="0px" viewBox="0 0 196 168.5"
	 style="enable-background:new 0 0 196 168.5;" xml:space="preserve">
<style type="text/css">
	.st0{fill:#A0A5AA;}
</style>
<title>logo-symbol</title>
<path class="st0" d="M91.2,109.3c0.6,28.9,26,49.6,34.5,55.9l4.4,3.3l5.5-3.3c10.3-6.3,42.3-27.8,50.2-55.9c0.7-2.7,1.2-5.4,1.6-8.1
	l8.4-59.9c0.1-1,0.2-2.1,0.1-3.2c-0.3-7.8-6.8-13.9-14.6-13.7c-8,0-15.8,5.7-18.4,13.6c-0.4,1-0.6,2.1-0.8,3.2l-1.7,12
	c-1.3-0.1-2.5-0.2-3.8-0.2c-3.6-0.1-7.2,0.6-10.6,2c-3.1-1.4-6.6-2.1-10-2c-1.3,0-2.6,0.1-3.8,0.2l5.1-36.4c0.1-1,0.2-2,0.1-3.1
	v-0.1c-0.3-7.8-6.8-13.9-14.6-13.7c-8,0-15.8,5.8-18.4,13.6c-0.4,1-0.6,2.1-0.8,3.2l-8.9,63.1l-1.2,8.1l-2.1,14.7
	C91.3,104.9,91.1,107.1,91.2,109.3z M140.3,84.8h-17.4l2.7-19c0.1-0.6,0.2-1.1,0.4-1.6c0.7-2,4.9-3,9-3s8,1,8.1,3l0,0
	c0,0.5,0,1-0.1,1.6l0,0l-2.6,18.6L140.3,84.8z M160.9,84.8h-17.4v-0.4l2.6-18.6l0.2-1.6l0,0l-0.2,1.6c0.1-0.5,0.2-1.1,0.4-1.6l0,0
	c0.7-2,4.9-3,9-3s8,1,8.1,3c0,0.5,0,1.1-0.1,1.6L160.9,84.8z M101.8,88.1h58.6c0,0.2-0.1,0.5-0.2,0.7c-0.3,1.1-0.7,2.2-1.2,3.3
	c-3.4,7.5-10.6,12.6-18.8,13.3h-23.5c-0.9,0-1.7,0.7-1.9,1.6c-0.1,0.8,0.4,1.5,1.1,1.6c0,0,0,0,0,0h0.3h23.6
	c3.8-0.3,7.5-1.4,10.8-3.3c3.2-1.8,6.1-4.3,8.4-7.3c1-1.4,1.9-2.8,2.7-4.4c0.5-1.1,1-2.2,1.3-3.3c0.2-0.6,0.4-1.2,0.5-1.8l0.2-0.8
	c0.1-0.4,3.1-22,3.1-22l0.2-1.6l3.2-22.9c0.1-0.6,0.2-1.1,0.4-1.6c1.4-4.1,5.2-6.9,9.5-7.1c4-0.1,7.4,3,7.5,7.1c0,0.5,0,1.1-0.1,1.6
	c-0.1,0.6-8.8,62.6-8.9,63.1c-5.5,30.1-46.8,54-47.2,54.3c-0.3-0.3-35-24.2-32-54.3c0.1-0.5,0.1-1.1,0.2-1.6L101.8,88.1z
	 M111.8,16.8c0.1-0.6,0.2-1.1,0.4-1.6c1.4-4.1,5.2-6.9,9.5-7.1c4-0.1,7.4,3,7.5,7.1c0,0.5,0,1.1-0.1,1.6l-6.7,47.4l-0.2,1.6l-2.7,19
	h-17.3L111.8,16.8z"/>
<path class="st0" d="M84.3,63.6H3.6c-1.9,0.1-3.5-1.4-3.6-3.3c0-0.3,0-0.5,0.1-0.8c0.4-2.3,2.3-4,4.7-4.1h80.7
	c1.9-0.1,3.5,1.4,3.6,3.4c0,0.2,0,0.5-0.1,0.7C88.5,61.8,86.6,63.5,84.3,63.6z"/>
<path class="st0" d="M81.7,81.9H19c-1.9,0.1-3.5-1.4-3.6-3.4c0-0.2,0-0.5,0.1-0.7c0.4-2.3,2.3-4,4.6-4.1h62.8
	c1.9-0.1,3.5,1.4,3.6,3.4c0,0.2,0,0.5-0.1,0.7C86,80.2,84,81.9,81.7,81.9z"/>
<path class="st0" d="M79.1,100.3H35.5c-1.9,0.1-3.5-1.4-3.6-3.4c0-0.2,0-0.5,0.1-0.7c0.4-2.3,2.3-4,4.6-4.1h43.6
	c1.9-0.1,3.5,1.4,3.6,3.4c0,0.2,0,0.5-0.1,0.7C83.4,98.5,81.4,100.3,79.1,100.3z"/>
<path class="st0" d="M76.5,118.7H54.7c-1.9,0.1-3.5-1.5-3.6-3.4c0-0.2,0-0.5,0.1-0.7c0.4-2.3,2.3-4,4.7-4.1h21.8
	c1.9-0.1,3.5,1.4,3.6,3.4c0,0.2,0,0.5-0.1,0.7C80.8,116.9,78.9,118.6,76.5,118.7z"/>
</svg>
